<?xml version="1.0" encoding="utf-8"?>
<!-- Generator: Adobe Illustrator 21.0.0, SVG Export Plug-In . SVG Version: 6.00 Build 0)  -->
<svg version="1.1" id="Calque_1" xmlns="http://www.w3.org/2000/svg" xmlns:xlink="http://www.w3.org/1999/xlink" x="0px" y="0px"
	 viewBox="0 0 720 720" style="enable-background:new 0 0 720 720;" xml:space="preserve">
<style type="text/css">
	.st0{fill:#19A5B0;}
</style>
<g transform="translate(0.000000,720.000000) scale(0.100000,-0.100000)">
	<path class="st0" d="M2632,5888l-2-1318l-1317-2l-1318-3l1330-5l1330-5l-1327-3L0,4550v-950v-950l1328-2l1327-3l-1330-5l-1330-5
		l1318-3l1317-2l2-1317l3-1318l5,1320l5,1320l3-1317l2-1318h950h950l2,1318l3,1317l5-1320l5-1320l3,1318l2,1317l1318,2l1317,3
		l-1330,5l-1330,5l1328,3l1327,2v950v950l-1327,2l-1328,3l1330,5l1330,5l-1317,3l-1318,2l-2,1318l-3,1317l-5-1320l-5-1320l-3,1318
		l-2,1317h-950h-950l-2-1317l-3-1318l-5,1320l-5,1320L2632,5888z"/>
</g>
</svg>
